<svg width="32" height="32" viewBox="0 0 32 32" fill="none" xmlns="http://www.w3.org/2000/svg">
<path d="M28 21.3333H4.00001V5.33329H28V21.3333ZM28 2.66663H4.00001C2.52001 2.66663 1.33334 3.85329 1.33334 5.33329V21.3333C1.33334 22.0405 1.6143 22.7188 2.11439 23.2189C2.61449 23.719 3.29277 24 4.00001 24H13.3333V26.6666H10.6667V29.3333H21.3333V26.6666H18.6667V24H28C28.7073 24 29.3855 23.719 29.8856 23.2189C30.3857 22.7188 30.6667 22.0405 30.6667 21.3333V5.33329C30.6667 4.62605 30.3857 3.94777 29.8856 3.44767C29.3855 2.94758 28.7073 2.66663 28 2.66663Z" fill="#2C2C2C"/>
<path d="M16 15C17.1046 15 18 14.1046 18 13C18 11.8954 17.1046 11 16 11C14.8954 11 14 11.8954 14 13C14 14.1046 14.8954 15 16 15Z" fill="#2C2C2C"/>
<path d="M23.3387 12.4563C22.5119 11.1775 21.4391 10.0913 20.2366 9.31469C18.9062 8.45469 17.4375 8 15.9894 8C14.6606 8 13.3541 8.37969 12.1059 9.12844C10.8331 9.89188 9.68 11.0072 8.67844 12.4431C8.56537 12.6054 8.5031 12.7976 8.49954 12.9954C8.49597 13.1932 8.55128 13.3875 8.65844 13.5538C9.48375 14.8453 10.5459 15.9331 11.7297 16.6991C13.0625 17.5625 14.4969 18 15.9894 18C17.4491 18 18.9209 17.5491 20.2456 16.6962C21.4475 15.9222 22.5181 14.8319 23.3419 13.5425C23.4453 13.3801 23.5 13.1915 23.4995 12.9989C23.4989 12.8064 23.4431 12.618 23.3387 12.4563ZM16 16C15.4067 16 14.8266 15.8241 14.3333 15.4944C13.8399 15.1648 13.4554 14.6962 13.2284 14.1481C13.0013 13.5999 12.9419 12.9967 13.0576 12.4147C13.1734 11.8328 13.4591 11.2982 13.8787 10.8787C14.2982 10.4591 14.8328 10.1734 15.4147 10.0576C15.9967 9.94189 16.5999 10.0013 17.148 10.2284C17.6962 10.4554 18.1648 10.8399 18.4944 11.3333C18.8241 11.8266 19 12.4067 19 13C18.9991 13.7954 18.6827 14.5579 18.1203 15.1203C17.5579 15.6827 16.7954 15.9991 16 16Z" fill="#F3B20F"/>
</svg>
