<svg width="32" height="32" viewBox="0 0 32 32" fill="none" xmlns="http://www.w3.org/2000/svg">
<path fill-rule="evenodd" clip-rule="evenodd" d="M1.33333 3.78392C1.33333 3.13396 1.59152 2.51063 2.05111 2.05104C2.5107 1.59145 3.13404 1.33326 3.784 1.33326H28.2133C28.5354 1.33273 28.8545 1.39574 29.1522 1.51868C29.4499 1.64162 29.7204 1.82207 29.9483 2.0497C30.1762 2.27734 30.357 2.54769 30.4802 2.84527C30.6035 3.14285 30.6668 3.46182 30.6667 3.78392V28.2133C30.667 28.5354 30.6038 28.8545 30.4808 29.1522C30.3577 29.4499 30.1771 29.7205 29.9494 29.9483C29.7216 30.1762 29.4512 30.3569 29.1535 30.4802C28.8559 30.6034 28.5368 30.6668 28.2147 30.6666H3.784C3.46206 30.6666 3.14327 30.6032 2.84586 30.4799C2.54844 30.3567 2.27822 30.176 2.05064 29.9483C1.82306 29.7206 1.64257 29.4503 1.51949 29.1528C1.39641 28.8553 1.33315 28.5365 1.33333 28.2146V3.78392ZM12.944 12.5173H16.916V14.5119C17.4893 13.3653 18.956 12.3333 21.16 12.3333C25.3853 12.3333 26.3867 14.6173 26.3867 18.8079V26.5706H22.1107V19.7626C22.1107 17.3759 21.5373 16.0293 20.0813 16.0293C18.0613 16.0293 17.2213 17.4813 17.2213 19.7626V26.5706H12.944V12.5173ZM5.61066 26.3879H9.888V12.3333H5.61066V26.3866V26.3879ZM10.5 7.74926C10.5081 8.11549 10.4429 8.47964 10.3083 8.82034C10.1737 9.16104 9.97246 9.47144 9.7163 9.7333C9.46014 9.99516 9.15426 10.2032 8.8166 10.3453C8.47894 10.4873 8.11631 10.5605 7.75 10.5605C7.38368 10.5605 7.02105 10.4873 6.68339 10.3453C6.34573 10.2032 6.03985 9.99516 5.78369 9.7333C5.52753 9.47144 5.32625 9.16104 5.19168 8.82034C5.0571 8.47964 4.99193 8.11549 5 7.74926C5.01583 7.03039 5.31251 6.34631 5.82651 5.8435C6.34051 5.3407 7.03096 5.05915 7.75 5.05915C8.46903 5.05915 9.15948 5.3407 9.67348 5.8435C10.1875 6.34631 10.4842 7.03039 10.5 7.74926Z" fill="#F3B20F"/>
</svg>
